<svg xmlns="http://www.w3.org/2000/svg" width="1080" height="114.91" viewBox="0 0 1080 114.91"><defs><style>.cls-1{fill:#fff}</style></defs><g id="title" transform="translate(-120 -347)"><path id="Path_179" data-name="Path 179" class="cls-1" d="M-593.7-17.058h14.071l21.888-78.8c1.876-6.566 4.221-17.041 4.221-17.041h.313s2.345 10.475 4.065 17.041l20.481 78.8h13.445l31.116-111.784h-14.227l-18.6 72.7c-1.72 6.879-4.378 18.917-4.378 18.917h-.313s-2.5-11.726-4.534-19.23l-19.548-72.387h-15.165l-20.168 72.386c-2.032 7.348-4.69 19.23-4.69 19.23h-.313s-2.345-11.413-4.221-18.917l-17.666-72.7h-14.7zm150.243 2.189c18.292 0 30.955-9.849 34.708-27.2H-421.1c-2.811 10.94-10.628 16.569-22.354 16.569-16.259 0-25.171-12.507-26.109-28.923h62.536c0-26.734-12.976-45.5-37.209-45.5-22.982 0-38.3 19.074-38.3 42.525s14.38 42.528 39.082 42.528zm-.782-75.043c14.54 0 22.826 9.849 23.607 25.953h-48.618c1.876-14.698 10.006-25.954 25.015-25.954zm144.146 73.636a17.332 17.332 0 0 0 6.879-1.251v-9.224h-.469c-7.035 1.563-8.6-2.032-8.6-8.6V-73.81c0-19.23-12.664-25.64-29.861-25.64-21.419 0-31.737 11.726-32.206 27.36h12.195c.469-12.195 7.035-17.823 20.168-17.823 11.569 0 18.136 5.159 18.136 14.227 0 8.755-7.973 9.849-19.386 11.569-20.163 3.127-35.173 7.035-35.173 26.109 0 15.321 12.038 22.513 27.36 22.513 13.758 0 22.044-6.566 26.891-12.82h.159c1.247 8.286 5.624 12.038 13.911 12.038zm-38.147-8.911c-8.286 0-16.728-2.345-16.728-13.133 0-11.882 10.162-14.071 22.826-16.416 6.879-1.251 14.227-3.283 18.448-5.941v13.757c.003 9.381-7.658 21.732-24.543 21.732zm70.2-72.7h-12.66v80.828h12.664v-44.87c0-15.165 10.944-24.545 23.451-24.545a15.314 15.314 0 0 1 5.628.782h.469v-12.195a12.175 12.175 0 0 0-5.159-.938c-10.787 0-19.23 6.566-24.076 14.383h-.313zm75.512 83.017c18.292 0 30.955-9.849 34.708-27.2h-12.351c-2.814 10.941-10.629 16.57-22.356 16.57-16.259 0-25.171-12.507-26.109-28.923h62.536c0-26.734-12.976-45.5-37.209-45.5-22.982 0-38.3 19.074-38.3 42.525s14.38 42.528 39.082 42.528zm-.782-75.043c14.54 0 22.826 9.849 23.607 25.953h-48.622c1.878-14.697 10.007-25.953 25.016-25.953zm82.548 72.855h14.072v-46.9h30.49c24.389 0 36.115-12.351 36.115-32.831a32.281 32.281 0 0 0-7.5-21.262c-5.785-6.879-14.852-10.787-26.578-10.787h-46.589zm14.071-99.589h30.174c14.227 0 22.517 7.035 22.517 20.48 0 12.82-7.5 20.793-23.295 20.793H-96.69zM16.969-14.87c18.292 0 30.955-9.849 34.708-27.2H39.326C36.512-31.129 28.695-25.5 16.969-25.5.71-25.5-8.2-38.008-9.14-54.424H53.4c0-26.734-12.976-45.5-37.209-45.5-22.982 0-38.3 19.074-38.3 42.525S-7.733-14.87 16.969-14.87zm-.782-75.043c14.54 0 22.826 9.849 23.607 25.953H-8.827c1.876-14.697 10.006-25.953 25.014-25.953zm65.35-7.973H68.874v80.828h12.664v-44.87c0-15.165 10.944-24.545 23.451-24.545a15.314 15.314 0 0 1 5.628.782h.469v-12.196a12.175 12.175 0 0 0-5.159-.938c-10.787 0-19.23 6.566-24.076 14.383h-.313zm38.929 10.318h11.1v70.51h12.664v-70.51h15.009v-10.319H144.23v-12.351c0-6.566 2.97-8.6 11.1-8.6 1.251 0 1.876 0 4.065.156v-10.787a67.347 67.347 0 0 0-6.41-.313c-13.445 0-21.419 5-21.419 18.917v12.976h-11.1zm118.35 70.51v-80.829h-12.663v49.717c0 12.82-8.286 22.513-21.106 22.513-11.413 0-18.136-6.1-18.136-16.572v-55.658h-12.664v55.97c0 16.728 10.631 26.734 27.2 26.734 11.726 0 18.6-5.159 24.389-12.976h.313v11.1zm20.324 0h12.66V-67.4c0-12.664 10.944-21.731 20.793-21.731 8.286 0 13.914 5.941 13.914 15.947v56.126h12.664V-67.4c0-12.664 9.38-21.731 19.855-21.731 8.13 0 14.852 5.941 14.852 15.947v56.126h12.664V-73.81c0-16.728-10.162-25.953-24.546-25.953a28.294 28.294 0 0 0-24.7 14.383h-.313c-3.439-9.38-11.257-14.383-21.106-14.383a28.339 28.339 0 0 0-23.764 13.445h-.313v-11.569h-12.66zm161.813 2.188c18.292 0 30.955-9.849 34.708-27.2H443.31c-2.81 10.941-10.632 16.57-22.357 16.57-16.26 0-25.171-12.507-26.109-28.923h62.536c0-26.734-12.976-45.5-37.209-45.5-22.982 0-38.3 19.074-38.3 42.525s14.38 42.528 39.082 42.528zm-.782-75.043c14.54 0 22.826 9.849 23.607 25.953h-48.621c1.876-14.697 10.006-25.953 25.014-25.953z" transform="translate(742.62 476.78)"/></g></svg>