<svg xmlns="http://www.w3.org/2000/svg" width="608" height="214.944" viewBox="0 0 608 214.944"><defs><style>.cls-1{fill:#fff}</style></defs><g id="title_tab" transform="translate(-42.317 -312.692)"><g id="title" transform="translate(42.756 312.693)"><g id="Group_254" data-name="Group 254"><path id="Path_179" data-name="Path 179" class="cls-1" d="M-607.251-70.064h7.476l11.631-41.87c1-3.489 2.243-9.055 2.243-9.055h.166s1.246 5.566 2.16 9.055l10.882 41.87h7.145l16.532-59.4h-7.56l-9.886 38.63c-.914 3.655-2.326 10.052-2.326 10.052h-.166s-1.329-6.231-2.409-10.218l-10.385-38.464h-8.052L-600.522-91c-1.08 3.9-2.492 10.218-2.492 10.218h-.166s-1.246-6.065-2.243-10.052l-9.388-38.63h-7.809zm79.836 1.163c9.72 0 16.449-5.234 18.443-14.455h-6.563c-1.5 5.815-5.649 8.806-11.88 8.806-8.64 0-13.375-6.646-13.874-15.369h33.231c0-14.206-6.9-24.175-19.772-24.175-12.212 0-20.354 10.135-20.354 22.6s7.643 22.594 20.769 22.594zm-.415-39.876c7.726 0 12.129 5.234 12.545 13.791h-25.837c.996-7.814 5.317-13.792 13.292-13.792zm76.6 39.129a9.21 9.21 0 0 0 3.655-.665v-4.9h-.249c-3.739.831-4.569-1.08-4.569-4.569v-20.437c0-10.218-6.729-13.624-15.867-13.624-11.381 0-16.865 6.231-17.114 14.538h6.48c.249-6.48 3.739-9.471 10.717-9.471 6.147 0 9.637 2.741 9.637 7.56 0 4.652-4.237 5.234-10.3 6.148-10.717 1.662-18.692 3.738-18.692 13.874 0 8.141 6.4 11.963 14.539 11.963a17.258 17.258 0 0 0 14.289-6.812h.083c.658 4.4 2.984 6.394 7.387 6.394zm-20.27-4.735c-4.4 0-8.889-1.246-8.889-6.978 0-6.314 5.4-7.477 12.129-8.723 3.655-.665 7.56-1.745 9.8-3.157v7.311c-.002 4.983-4.072 11.546-13.04 11.546zm37.3-38.63h-6.729v42.95h6.729v-23.844c0-8.058 5.815-13.043 12.461-13.043a8.137 8.137 0 0 1 2.991.415h.249v-6.48a6.469 6.469 0 0 0-2.741-.5c-5.732 0-10.218 3.489-12.794 7.643h-.166zm40.122 44.113c9.72 0 16.449-5.234 18.443-14.455h-6.565c-1.5 5.815-5.649 8.806-11.88 8.806-8.64 0-13.375-6.646-13.874-15.369h33.231c0-14.206-6.9-24.175-19.772-24.175-12.212 0-20.354 10.135-20.354 22.6S-407.2-68.9-394.078-68.9zm-.415-39.876c7.726 0 12.129 5.234 12.544 13.791h-25.836c.997-7.815 5.317-13.793 13.292-13.793z" transform="translate(622.62 129.464)"/></g></g><g id="title-2" data-name="title" transform="translate(42.317 404.664)"><g id="Group_254-2" data-name="Group 254"><path id="Path_179-2" data-name="Path 179" class="cls-1" d="M-618.3 93.584h15.058V43.391h32.625c26.1 0 38.648-13.217 38.648-35.135A34.545 34.545 0 0 0-540-14.5c-6.19-7.362-15.894-11.544-28.442-11.544H-618.3zm15.058-106.576h32.291c15.225 0 24.093 7.529 24.093 21.917 0 13.719-8.031 22.252-24.929 22.252h-31.454zm121.63 108.918c19.575 0 33.127-10.54 37.143-29.112h-13.217c-3.011 11.712-11.377 17.735-23.925 17.735-17.4 0-26.937-13.385-27.94-30.952h66.923c0-28.61-13.887-48.687-39.819-48.687-24.595 0-40.991 20.412-40.991 45.508s15.391 45.508 41.826 45.508zm-.836-80.308c15.56 0 24.427 10.54 25.263 27.773h-52.033c2.007-15.727 10.707-27.773 26.769-27.773zm69.935-8.533h-13.552v86.5h13.552V45.566c0-16.229 11.712-26.267 25.1-26.267a16.388 16.388 0 0 1 6.023.837h.5V7.085a13.031 13.031 0 0 0-5.521-1c-11.544 0-20.579 7.027-25.765 15.392h-.335zm41.66 11.042h11.879v75.457h13.552V18.128h16.061V7.085h-16.061V-6.132c0-7.027 3.179-9.2 11.879-9.2 1.339 0 2.008 0 4.35.167v-11.546c-1.84-.167-4.016-.335-6.86-.335-14.388 0-22.922 5.354-22.922 20.244V7.085h-11.879zM-244.2 93.584V7.085h-13.552v53.2c0 13.719-8.867 24.092-22.586 24.092-12.214 0-19.408-6.525-19.408-17.735V7.085H-313.3v59.9c0 17.9 11.377 28.61 29.112 28.61 12.549 0 19.91-5.521 26.1-13.887h.334v11.876zm21.75 0h13.55V39.71c0-13.552 11.712-23.256 22.252-23.256 8.867 0 14.891 6.358 14.891 17.065v60.065h13.557V39.71c0-13.552 10.039-23.256 21.248-23.256 8.7 0 15.894 6.358 15.894 17.065v60.065h13.552V32.851c0-17.9-10.875-27.773-26.267-27.773a30.279 30.279 0 0 0-26.439 15.392h-.335c-3.681-10.039-12.046-15.392-22.587-15.392-10.875 0-20.077 6.023-25.431 14.389h-.335V7.085h-13.552zm173.165 2.342c19.575 0 33.127-10.54 37.142-29.112h-13.218c-3.011 11.712-11.377 17.735-23.925 17.735-17.4 0-26.937-13.385-27.941-30.952H-10.3c0-28.61-13.89-48.687-39.823-48.687-24.594 0-40.991 20.412-40.991 45.508s15.393 45.508 41.828 45.508zm-.837-80.308c15.56 0 24.427 10.54 25.263 27.773h-52.033c2.008-15.727 10.708-27.773 26.769-27.773z" transform="translate(618.303 27.046)"/></g></g></g></svg>