<svg id="logo" xmlns="http://www.w3.org/2000/svg" width="280.485" height="58.867" viewBox="0 0 280.485 58.867">
  <defs>
    <style>
      .cls-1 {
        fill: #fff;
      }
    </style>
  </defs>
  <path id="Path_1" data-name="Path 1" class="cls-1" d="M185.983,137.908h22.312a.809.809,0,0,0,.809-.818.818.818,0,0,0-.809-.813H185.983a.812.812,0,0,0-.8.818A.8.8,0,0,0,185.983,137.908Z" transform="translate(-12.669 -87.453)"/>
  <path id="Path_2" data-name="Path 2" class="cls-1" d="M274.256,164.777a2.608,2.608,0,0,0,2.645-2.631,9.24,9.24,0,0,0-2.745-6.562,9.015,9.015,0,0,0-6.538-2.736H245.3c-.062,0-1.157.1-1.157.1-.067,0-.167.01-.167.01a9.908,9.908,0,0,0-3.4,1.2,8.759,8.759,0,0,0-1.918,1.6c-.077-.081-.158-.172-.158-.172a9.318,9.318,0,0,0-6.524-2.736H221.4a15.548,15.548,0,0,0,4.257-10.723v-.11a15.884,15.884,0,0,0-4.74-11.288,15.484,15.484,0,0,0-11.225-4.658H165.062a15.974,15.974,0,0,0-15.951,15.946v40.191a2.61,2.61,0,0,0,2.549,2.669,2.639,2.639,0,0,0,2.678-2.669V158.081h47.045a9.449,9.449,0,0,0-.971,4.065V175.6a9.2,9.2,0,0,0,2.741,6.553,8.97,8.97,0,0,0,6.538,2.726h28.965a2.607,2.607,0,0,0,2.583-2.631v-20.1a4.1,4.1,0,0,1,4.056-4.065h22.322a3.9,3.9,0,0,1,2.836,1.186,3.971,3.971,0,0,1,1.2,2.855A2.628,2.628,0,0,0,274.256,164.777ZM154.339,152.848V142.015a10.607,10.607,0,0,1,3.094-7.49,10.376,10.376,0,0,1,7.629-3.238h44.629a10.287,10.287,0,0,1,7.543,3.133,10.826,10.826,0,0,1,3.195,7.6v.11a10.743,10.743,0,0,1-10.676,10.723H154.339Zm81.678,26.813H209.691a3.915,3.915,0,0,1-2.841-1.191,4.015,4.015,0,0,1-1.205-2.875v-4.171h26.311a9.193,9.193,0,0,0,4.061-.971Zm-4.061-13.454H205.645v-4.061a4.1,4.1,0,0,1,4.046-4.065h22.265a3.85,3.85,0,0,1,2.831,1.186,3.958,3.958,0,0,1,1.229,2.879A4.072,4.072,0,0,1,231.956,166.207Z" transform="translate(-149.111 -126.069)"/>
  <path id="Path_3" data-name="Path 3" class="cls-1" d="M330.1,163.819H301.135a3.945,3.945,0,0,1-2.836-1.181,4.024,4.024,0,0,1-1.22-2.884v-4.171H323.4a9.211,9.211,0,0,0,9.274-9.279,9.19,9.19,0,0,0-2.731-6.562,9.337,9.337,0,0,0-6.524-2.736H301.135a9.193,9.193,0,0,0-6.586,2.793,2.953,2.953,0,0,1-.205-.22,9.036,9.036,0,0,0-6.548-2.736,9.147,9.147,0,0,0-6.639,2.9c-.058-.067-.21-.229-.21-.229a9.007,9.007,0,0,0-6.543-2.726,9.166,9.166,0,0,0-6.624,2.922,1.957,1.957,0,0,0-.168-.163,8.96,8.96,0,0,0-6.5-2.7c-.072.014-1.306.115-1.306.115a9.952,9.952,0,0,0-3.367,1.162,9.25,9.25,0,0,0-4.554,6.935v14.473a4.071,4.071,0,0,1-4.051,4.065H225.488a4.01,4.01,0,0,1-4.046-4.065V139.545a9.307,9.307,0,0,0-2.736-6.567,9.032,9.032,0,0,0-6.538-2.721H195.442a9.3,9.3,0,0,0-9.288,9.288s0,12.416,0,12.9h-8.762a2.626,2.626,0,1,0,0,5.252h8.762c0,.478,0,8.7,0,8.7a2.616,2.616,0,1,0,5.233,0s0-8.227-.01-8.7h8.781a2.626,2.626,0,0,0,0-5.252h-8.781c.01-.483.01-12.9.01-12.9a4.22,4.22,0,0,1,1.167-2.874,4.012,4.012,0,0,1,2.889-1.177h16.726A3.872,3.872,0,0,1,215,136.671a4.054,4.054,0,0,1,1.215,2.874v19.983a9.35,9.35,0,0,0,9.288,9.293h22.379a9.326,9.326,0,0,0,9.222-9.293V145.806a3.656,3.656,0,0,1,1.138-2.53,3.986,3.986,0,0,1,2.865-1.2,4.1,4.1,0,0,1,4.046,4.065v20.093a2.623,2.623,0,1,0,5.247,0v-6.586a.252.252,0,0,0,.048-.119V146.141a4.092,4.092,0,0,1,4.027-4.065,3.832,3.832,0,0,1,2.821,1.186,4,4,0,0,1,1.205,2.879v20.093a2.616,2.616,0,1,0,5.233,0V146.141a4.1,4.1,0,0,1,4.061-4.065,3.8,3.8,0,0,1,2.822,1.186,3.923,3.923,0,0,1,1.239,2.879v13.612a9.237,9.237,0,0,0,2.741,6.562,8.968,8.968,0,0,0,6.539,2.716H330.1a2.607,2.607,0,0,0,0-5.213ZM297.079,146.3a4.116,4.116,0,0,1,4.056-4.065H323.4a3.839,3.839,0,0,1,2.827,1.186,3.963,3.963,0,0,1,1.234,2.879,4.079,4.079,0,0,1-4.061,4.061H297.079Z" transform="translate(-52.189 -110.165)"/>
</svg>
